# xmcd
#
# Track frame offsets: 
#        150
#        4059
#        16075
#        32192
#        52566
#        74092
#        83639
#        102395
#        111092
#        125376
#        141207
#        162329
#        179250
#        191522
#        202776
#        218395
#        227046
#        243262
#
# Disc length: 3592 seconds
#
# Revision: 0
# Processed by: cddbd v1.5.2PL0 Copyright (c) Steve Scherf et al.
# Submitted via: ExactAudioCopy v0.99pb5
#
DISCID=e20e0612
DTITLE=Nirvana  - From The Muddy Banks of the Wishkah (with Vinyl Extr
DTITLE=a)  FLAC
DYEAR=1900
DGENRE=
TTITLE0=Intro
TTITLE1=School
TTITLE2=Drain You
TTITLE3=Aneurysm
TTITLE4=Smells Like Teen Spirit
TTITLE5=Been a Son
TTITLE6=Lithium
TTITLE7=Sliver
TTITLE8=Spank Thru
TTITLE9=Scentless Apprentice
TTITLE10=Heart Shaped Box
TTITLE11=Milk It
TTITLE12=Negative Creep
TTITLE13=Polly
TTITLE14=Breed
TTITLE15=Tourette's
TTITLE16=Blew
TTITLE17=Vinyl Side 4
EXTD=
EXTT0=
EXTT1=
EXTT2=
EXTT3=
EXTT4=
EXTT5=
EXTT6=
EXTT7=
EXTT8=
EXTT9=
EXTT10=
EXTT11=
EXTT12=
EXTT13=
EXTT14=
EXTT15=
EXTT16=
EXTT17=
PLAYORDER=
